<?xml version="1.0" encoding="UTF-8" standalone="no"?>
<!-- Created with Inkscape (http://www.inkscape.org/) -->

<svg
   width="46.027813"
   height="48.152283"
   viewBox="0 0 12.178192 12.740291"
   version="1.1"
   id="svg1"
   xml:space="preserve"
   inkscape:version="1.4.2 (f4327f4, 2025-05-13)"
   sodipodi:docname="sprites.svg"
   xmlns:inkscape="http://www.inkscape.org/namespaces/inkscape"
   xmlns:sodipodi="http://sodipodi.sourceforge.net/DTD/sodipodi-0.dtd"
   xmlns="http://www.w3.org/2000/svg"
   xmlns:svg="http://www.w3.org/2000/svg"><sodipodi:namedview
     id="namedview1"
     pagecolor="#505050"
     bordercolor="#eeeeee"
     borderopacity="1"
     inkscape:showpageshadow="0"
     inkscape:pageopacity="0"
     inkscape:pagecheckerboard="0"
     inkscape:deskcolor="#0f0f0f"
     inkscape:document-units="px"
     inkscape:zoom="0.4762257"
     inkscape:cx="-474.56489"
     inkscape:cy="472.46505"
     inkscape:window-width="1280"
     inkscape:window-height="961"
     inkscape:window-x="-8"
     inkscape:window-y="-8"
     inkscape:window-maximized="1"
     inkscape:current-layer="layer1"><inkscape:page
       x="0"
       y="3.6498146e-15"
       width="12.178192"
       height="12.740291"
       id="page2"
       margin="0"
       bleed="0" /></sodipodi:namedview><defs
     id="defs1" /><g
     inkscape:label="Calque 1"
     inkscape:groupmode="layer"
     id="layer1"
     transform="translate(19.948155,-138.70431)"><g
       id="g93"
       transform="translate(233.62302,18.195372)"><path
         id="path83"
         style="fill:#ff0000;fill-opacity:1;fill-rule:evenodd;stroke:none;stroke-width:0.264583px;stroke-linecap:butt;stroke-linejoin:miter;stroke-opacity:1"
         d="m -251.748,122.43284 c 0,0 -1.23797,1.08264 -1.57096,1.78387 -0.2413,0.50815 -0.26811,1.10756 -0.24598,1.66966 0.0231,0.58724 0.34415,1.52233 0.39326,1.71876 0.0491,0.19643 0.6278,1.36934 1.08003,1.96422 0.59545,0.78328 1.34146,1.44994 2.1115,2.06241 0.70419,0.56009 2.18675,1.42385 2.47375,1.58956 v 0.0279 c 0,0 0.008,-0.005 0.0243,-0.014 0.0159,0.009 0.0243,0.014 0.0243,0.014 v -0.0279 c 0.287,-0.16571 1.76956,-1.02947 2.47375,-1.58956 0.77004,-0.61247 1.51605,-1.27913 2.1115,-2.06241 0.45223,-0.59488 1.03145,-1.76779 1.08055,-1.96422 0.0491,-0.19643 0.36964,-1.13152 0.39274,-1.71876 0.0221,-0.5621 -0.004,-1.16151 -0.24546,-1.66966 -0.33299,-0.70123 -1.57148,-1.78387 -1.57148,-1.78387 h -4.2416 -0.0486 z" /><path
         style="fill:#00ff00;fill-opacity:1;fill-rule:evenodd;stroke:none;stroke-width:0.264583px;stroke-linecap:butt;stroke-linejoin:miter;stroke-opacity:1"
         d="m -251.77232,122.08281 c 0,0 2.80558,0.20834 4.21094,0.20834 1.40536,0 4.21093,-0.20834 4.21093,-0.20834 0,0 -1.16086,1.21897 -1.8624,1.80048 -0.70154,0.58151 -2.34853,1.66158 -2.34853,1.66158 0,0 -1.71488,-0.98955 -2.41799,-1.57477 -0.7031,-0.58522 -1.79295,-1.88729 -1.79295,-1.88729 z"
         id="path84"
         sodipodi:nodetypes="czczczc" /><rect
         style="fill:#ffffff;fill-opacity:1;fill-rule:evenodd;stroke:none;stroke-width:0.873125;stroke-linecap:round;stroke-linejoin:round;stroke-dasharray:none;stroke-opacity:1"
         id="rect85"
         width="0.63839287"
         height="2.4553571"
         x="-247.79465"
         y="120.50893" /><circle
         style="fill:#ffffff;fill-opacity:1;fill-rule:evenodd;stroke:none;stroke-width:0.873125;stroke-linecap:round;stroke-linejoin:round;stroke-dasharray:none;stroke-opacity:1"
         id="path85"
         cx="-251.72321"
         cy="125.32143"
         r="0.4910714" /><circle
         style="fill:#ffffff;fill-opacity:1;fill-rule:evenodd;stroke:none;stroke-width:0.873125;stroke-linecap:round;stroke-linejoin:round;stroke-dasharray:none;stroke-opacity:1"
         id="circle85"
         cx="-249.77866"
         cy="126.36314"
         r="0.4910714" /><circle
         style="fill:#ffffff;fill-opacity:1;fill-rule:evenodd;stroke:none;stroke-width:0.873125;stroke-linecap:round;stroke-linejoin:round;stroke-dasharray:none;stroke-opacity:1"
         id="circle86"
         cx="-250.75093"
         cy="128.48129"
         r="0.4910714" /><circle
         style="fill:#ffffff;fill-opacity:1;fill-rule:evenodd;stroke:none;stroke-width:0.873125;stroke-linecap:round;stroke-linejoin:round;stroke-dasharray:none;stroke-opacity:1"
         id="circle87"
         cx="-247.52161"
         cy="126.25896"
         r="0.4910714" /><circle
         style="fill:#ffffff;fill-opacity:1;fill-rule:evenodd;stroke:none;stroke-width:0.873125;stroke-linecap:round;stroke-linejoin:round;stroke-dasharray:none;stroke-opacity:1"
         id="circle88"
         cx="-245.40344"
         cy="125.25196"
         r="0.4910714" /><circle
         style="fill:#ffffff;fill-opacity:1;fill-rule:evenodd;stroke:none;stroke-width:0.873125;stroke-linecap:round;stroke-linejoin:round;stroke-dasharray:none;stroke-opacity:1"
         id="circle89"
         cx="-243.45889"
         cy="124.27969"
         r="0.4910714" /><circle
         style="fill:#ffffff;fill-opacity:1;fill-rule:evenodd;stroke:none;stroke-width:0.873125;stroke-linecap:round;stroke-linejoin:round;stroke-dasharray:none;stroke-opacity:1"
         id="circle90"
         cx="-244.46588"
         cy="127.43958"
         r="0.4910714" /><circle
         style="fill:#ffffff;fill-opacity:1;fill-rule:evenodd;stroke:none;stroke-width:0.873125;stroke-linecap:round;stroke-linejoin:round;stroke-dasharray:none;stroke-opacity:1"
         id="circle91"
         cx="-245.57704"
         cy="130.4953"
         r="0.4910714" /><circle
         style="fill:#ffffff;fill-opacity:1;fill-rule:evenodd;stroke:none;stroke-width:0.873125;stroke-linecap:round;stroke-linejoin:round;stroke-dasharray:none;stroke-opacity:1"
         id="circle92"
         cx="-247.72993"
         cy="128.44658"
         r="0.4910714" /><circle
         style="fill:#ffffff;fill-opacity:1;fill-rule:evenodd;stroke:none;stroke-width:0.873125;stroke-linecap:round;stroke-linejoin:round;stroke-dasharray:none;stroke-opacity:1"
         id="circle93"
         cx="-248.59804"
         cy="130.56474"
         r="0.4910714" /></g></g></svg>
