<?xml version="1.0" encoding="UTF-8" standalone="no"?>
<!-- Created with Inkscape (http://www.inkscape.org/) -->

<svg
   width="51.015839"
   height="47.729248"
   viewBox="0 0 13.49794 12.628364"
   version="1.1"
   id="svg1"
   xml:space="preserve"
   inkscape:version="1.4.2 (f4327f4, 2025-05-13)"
   sodipodi:docname="sprites.svg"
   xmlns:inkscape="http://www.inkscape.org/namespaces/inkscape"
   xmlns:sodipodi="http://sodipodi.sourceforge.net/DTD/sodipodi-0.dtd"
   xmlns="http://www.w3.org/2000/svg"
   xmlns:svg="http://www.w3.org/2000/svg"><sodipodi:namedview
     id="namedview1"
     pagecolor="#505050"
     bordercolor="#eeeeee"
     borderopacity="1"
     inkscape:showpageshadow="0"
     inkscape:pageopacity="0"
     inkscape:pagecheckerboard="0"
     inkscape:deskcolor="#0f0f0f"
     inkscape:document-units="px"
     inkscape:zoom="0.4762257"
     inkscape:cx="-474.56489"
     inkscape:cy="472.46505"
     inkscape:window-width="1280"
     inkscape:window-height="961"
     inkscape:window-x="-8"
     inkscape:window-y="-8"
     inkscape:window-maximized="1"
     inkscape:current-layer="layer1"><inkscape:page
       x="0"
       y="0"
       width="13.49794"
       height="12.628364"
       id="page2"
       margin="0"
       bleed="0" /></sodipodi:namedview><defs
     id="defs1" /><g
     inkscape:label="Calque 1"
     inkscape:groupmode="layer"
     id="layer1"
     transform="translate(3.3035006,-139.41629)"><g
       id="g95"
       transform="translate(244.54522,-72.080115)"><path
         id="path93"
         style="fill:#ffb751;fill-opacity:1;fill-rule:evenodd;stroke:none;stroke-width:0.264583px;stroke-linecap:butt;stroke-linejoin:miter;stroke-opacity:1"
         d="m -244.45174,214.19257 c -0.58211,0.003 -1.27552,0.22455 -1.77147,0.55293 -0.5668,0.3753 -0.95542,0.98994 -1.22783,1.57148 -0.27241,0.58154 -0.36441,1.17782 -0.39274,1.81695 -0.0283,0.63913 0.0665,1.36006 0.24546,1.96422 0.17891,0.60416 0.4559,1.16739 0.786,1.62057 0.3301,0.45318 0.56425,0.68648 1.12913,1.08056 0.56488,0.39408 1.62059,0.92804 2.30838,1.12913 0.68779,0.20109 1.71876,0.19637 1.71876,0.19637 h 0.47439 0.16382 0.47439 c 0,0 1.03096,0.005 1.71875,-0.19637 0.68779,-0.20109 1.74351,-0.73505 2.30839,-1.12913 0.56488,-0.39408 0.79903,-0.62738 1.12913,-1.08056 0.3301,-0.45318 0.60709,-1.01641 0.786,-1.62057 0.17894,-0.60416 0.27376,-1.32509 0.24546,-1.96422 -0.0283,-0.63913 -0.12033,-1.23541 -0.39274,-1.81695 -0.27241,-0.58154 -0.66103,-1.19618 -1.22783,-1.57148 -0.5668,-0.3753 -1.39166,-0.61112 -2.01331,-0.54002 -0.62165,0.0711 -1.18651,0.49755 -1.66967,0.6873 -0.24468,0.0961 -1.16063,0.16999 -1.44074,0.19069 -0.2801,-0.0207 -1.19554,-0.0946 -1.44022,-0.19069 -0.48316,-0.18975 -1.04802,-0.61618 -1.66967,-0.6873 -0.0777,-0.009 -0.15868,-0.0133 -0.24184,-0.0129 z" /><path
         style="fill:#00ff00;fill-opacity:1;fill-rule:evenodd;stroke:none;stroke-width:0.264583px;stroke-linecap:butt;stroke-linejoin:miter;stroke-opacity:1"
         d="m -241.36648,212.68446 c 0.16242,-0.24155 0.74389,-0.53171 1.14589,-0.7292 0.402,-0.19749 0.80792,-0.4093 1.25007,-0.45142 0.44215,-0.0421 1.18061,0.10418 1.31951,0.20835 0.1389,0.10417 1.06878,0.45772 1.28479,0.79865 0.21601,0.34093 0.21384,0.57693 0.10417,0.90282 -0.10967,0.32589 -0.49324,0.60503 -0.79865,0.83338 -0.30541,0.22835 -0.56417,0.4545 -1.007,0.52086 -0.44283,0.0664 -1.14477,-0.0443 -1.52785,-0.27779 -0.38308,-0.23354 -0.42066,-0.6882 -0.69448,-0.90283 -0.27382,-0.21463 -0.67817,-0.29276 -0.8681,-0.38196 -0.18993,-0.0892 -0.2778,-0.1389 -0.2778,-0.1389 0,0 -0.093,-0.14041 0.0695,-0.38196 z"
         id="path95"
         sodipodi:nodetypes="zzzzzzzzzzzcz" /><path
         style="fill:#de9751;fill-opacity:1;fill-rule:evenodd;stroke:none;stroke-width:0.264583px;stroke-linecap:butt;stroke-linejoin:miter;stroke-opacity:1"
         d="m -241.36161,216.66071 1.12947,-1.35045 -0.66295,-1.69419 v -1.62054 h -1.03125 v 1.57143 l -0.54018,1.7433 z"
         id="path94"
         sodipodi:nodetypes="cccccccc" /></g></g></svg>
