<?xml version="1.0" encoding="UTF-8" standalone="no"?>
<!-- Created with Inkscape (http://www.inkscape.org/) -->

<svg
   width="52.158886"
   height="51.794006"
   viewBox="0 0 13.800372 13.703831"
   version="1.1"
   id="svg1"
   xml:space="preserve"
   inkscape:version="1.4.2 (f4327f4, 2025-05-13)"
   sodipodi:docname="sprites.svg"
   xmlns:inkscape="http://www.inkscape.org/namespaces/inkscape"
   xmlns:sodipodi="http://sodipodi.sourceforge.net/DTD/sodipodi-0.dtd"
   xmlns="http://www.w3.org/2000/svg"
   xmlns:svg="http://www.w3.org/2000/svg"><sodipodi:namedview
     id="namedview1"
     pagecolor="#505050"
     bordercolor="#eeeeee"
     borderopacity="1"
     inkscape:showpageshadow="0"
     inkscape:pageopacity="0"
     inkscape:pagecheckerboard="0"
     inkscape:deskcolor="#0f0f0f"
     inkscape:document-units="px"
     inkscape:zoom="0.4762257"
     inkscape:cx="-474.56489"
     inkscape:cy="472.46505"
     inkscape:window-width="1280"
     inkscape:window-height="961"
     inkscape:window-x="-8"
     inkscape:window-y="-8"
     inkscape:window-maximized="1"
     inkscape:current-layer="layer1"><inkscape:page
       x="2.6478321e-16"
       y="0"
       width="13.800372"
       height="13.703831"
       id="page2"
       margin="0"
       bleed="0" /></sodipodi:namedview><defs
     id="defs1" /><g
     inkscape:label="Calque 1"
     inkscape:groupmode="layer"
     id="layer1"
     transform="translate(-11.539191,-139.37909)"><g
       id="g98"
       transform="translate(228.05357,-70.910713)"><path
         style="fill:#ff0000;fill-opacity:1;fill-rule:evenodd;stroke:none;stroke-width:0.264583px;stroke-linecap:butt;stroke-linejoin:miter;stroke-opacity:1"
         d="m -210.03125,213.61606 c -1.33106,0.0125 -1.9384,-2.15455 -3.58483,-1.81696 -1.64643,0.33759 -2.93918,2.05605 -2.89731,4.56696 0.0419,2.51091 2.51141,7.26425 4.71429,7.51339 2.21171,0.25015 1.33008,-1.30399 2.20982,-1.34972 0.87974,-0.0457 0.002,1.64487 1.86607,1.44794 1.86379,-0.19693 4.98256,-4.16885 5.00892,-6.77679 0.0264,-2.60794 -1.8043,-5.05641 -3.63392,-5.35268 -1.82962,-0.29627 -2.35198,1.75537 -3.68304,1.76786 z"
         id="path96"
         sodipodi:nodetypes="zzzszzzzz" /><path
         style="fill:none;fill-rule:evenodd;stroke:#d68f4d;stroke-width:0.661458;stroke-linecap:round;stroke-linejoin:miter;stroke-dasharray:none;stroke-opacity:1"
         d="m -209.93303,213.81249 -0.0491,-1.57142 1.27679,-1.62054"
         id="path97" /><path
         id="ellipse98"
         style="fill:#f7f7f7;fill-opacity:0.934028;fill-rule:evenodd;stroke-width:0.661458;stroke-linecap:round;stroke-linejoin:round"
         d="m -205.00766,216.52701 a 0.47771983,1.9709021 15.000411 0 0 -0.97218,1.83426 0.47771983,1.9709021 15.000411 0 0 -0.20749,1.21473 0.38523732,1.5893522 48.99197 0 0 -0.8163,0.60395 0.38523732,1.5893522 48.99197 0 0 -0.90692,1.31313 0.38523732,1.5893522 48.99197 0 0 1.47678,-0.78806 0.38523732,1.5893522 48.99197 0 0 0.39355,-0.37797 0.47771983,1.9709021 15.000411 0 0 0.0384,0.0124 0.47771983,1.9709021 15.000411 0 0 0.97217,-1.83428 0.47771983,1.9709021 15.000411 0 0 0.0223,-1.97845 z" /></g></g></svg>
