<?xml version="1.0" encoding="UTF-8" standalone="no"?>
<!-- Created with Inkscape (http://www.inkscape.org/) -->

<svg
   width="46.718742"
   height="56.538269"
   viewBox="0 0 12.361 14.959084"
   version="1.1"
   id="svg1"
   xml:space="preserve"
   inkscape:version="1.4.2 (f4327f4, 2025-05-13)"
   sodipodi:docname="sprites.svg"
   xmlns:inkscape="http://www.inkscape.org/namespaces/inkscape"
   xmlns:sodipodi="http://sodipodi.sourceforge.net/DTD/sodipodi-0.dtd"
   xmlns:xlink="http://www.w3.org/1999/xlink"
   xmlns="http://www.w3.org/2000/svg"
   xmlns:svg="http://www.w3.org/2000/svg"><sodipodi:namedview
     id="namedview1"
     pagecolor="#505050"
     bordercolor="#eeeeee"
     borderopacity="1"
     inkscape:showpageshadow="0"
     inkscape:pageopacity="0"
     inkscape:pagecheckerboard="0"
     inkscape:deskcolor="#0f0f0f"
     inkscape:document-units="px"
     inkscape:zoom="0.4762257"
     inkscape:cx="-474.56489"
     inkscape:cy="472.46505"
     inkscape:window-width="1280"
     inkscape:window-height="961"
     inkscape:window-x="-8"
     inkscape:window-y="-8"
     inkscape:window-maximized="1"
     inkscape:current-layer="layer1"><inkscape:page
       x="0"
       y="0"
       width="12.361"
       height="14.959084"
       id="page2"
       margin="0"
       bleed="0" /></sodipodi:namedview><defs
     id="defs1"><linearGradient
       id="linearGradient106"
       inkscape:collect="always"><stop
         style="stop-color:#21dd51;stop-opacity:1;"
         offset="0"
         id="stop106" /><stop
         style="stop-color:#3cc193;stop-opacity:1;"
         offset="0.5"
         id="stop108" /><stop
         style="stop-color:#21dd51;stop-opacity:1;"
         offset="1"
         id="stop107" /></linearGradient><linearGradient
       inkscape:collect="always"
       xlink:href="#linearGradient106"
       id="linearGradient107"
       x1="-211.5358"
       y1="231.30942"
       x2="-204.06677"
       y2="231.30942"
       gradientUnits="userSpaceOnUse" /><linearGradient
       inkscape:collect="always"
       xlink:href="#linearGradient106"
       id="linearGradient110"
       x1="-204.61583"
       y1="231.20972"
       x2="-203.84251"
       y2="230.41106"
       gradientUnits="userSpaceOnUse" /><linearGradient
       inkscape:collect="always"
       xlink:href="#linearGradient106"
       id="linearGradient112"
       x1="-205.98822"
       y1="234.32973"
       x2="-205.36713"
       y2="233.49635"
       gradientUnits="userSpaceOnUse" /></defs><g
     inkscape:label="Calque 1"
     inkscape:groupmode="layer"
     id="layer1"
     transform="translate(-28.72253,-138.49808)"><g
       id="g116"
       transform="translate(241.8475,-83.730441)"><path
         id="path98"
         style="fill:#00ff00;fill-rule:evenodd;stroke-width:0.661458;stroke-linecap:round;stroke-linejoin:round"
         d="m -206.93775,224.81263 a 6.1874995,6.1874995 0 0 0 -3.81786,1.31827 0.88392854,0.88392854 0 0 1 0.0367,0.25321 0.88392854,0.88392854 0 0 1 -0.88366,0.88367 0.88392854,0.88392854 0 0 1 -0.24392,-0.0341 6.1874995,6.1874995 0 0 0 -0.84749,1.4981 0.88392854,0.88392854 0 0 1 0.50178,0.79479 0.88392854,0.88392854 0 0 1 -0.88367,0.88418 0.88392854,0.88392854 0 0 1 -0.0207,-5.2e-4 6.1874995,6.1874995 0 0 0 -0.0284,0.58963 6.1874995,6.1874995 0 0 0 1.09916,3.52072 0.88392854,0.88392854 0 0 1 0.37413,-0.0832 0.88392854,0.88392854 0 0 1 0.88367,0.88418 0.88392854,0.88392854 0 0 1 -0.11834,0.44183 6.1874995,6.1874995 0 0 0 1.09141,0.72451 0.88392854,0.88392854 0 0 1 0.6475,-0.28267 0.88392854,0.88392854 0 0 1 0.88264,0.83819 6.1874995,6.1874995 0 0 0 1.32705,0.14418 6.1874995,6.1874995 0 0 0 1.6707,-0.22945 0.88392854,0.88392854 0 0 1 0.88315,-0.85111 0.88392854,0.88392854 0 0 1 0.58756,0.22376 6.1874995,6.1874995 0 0 0 1.64382,-1.40767 0.88392854,0.88392854 0 0 1 -0.26716,-0.63303 0.88392854,0.88392854 0 0 1 0.88418,-0.88367 0.88392854,0.88392854 0 0 1 0.26923,0.0439 6.1874995,6.1874995 0 0 0 0.39016,-1.20665 0.88392854,0.88392854 0 0 1 -0.51211,-0.8015 0.88392854,0.88392854 0 0 1 0.62425,-0.84491 6.1874995,6.1874995 0 0 0 -1.37666,-3.49126 0.88392854,0.88392854 0 0 1 -0.32815,0.0636 0.88392854,0.88392854 0 0 1 -0.88366,-0.88366 0.88392854,0.88392854 0 0 1 0.0486,-0.28371 6.1874995,6.1874995 0 0 0 -3.63388,-1.18959 z" /><path
         style="fill:none;fill-rule:evenodd;stroke:url(#linearGradient107);stroke-width:0.79375;stroke-linecap:butt;stroke-linejoin:miter;stroke-dasharray:none;stroke-opacity:1"
         d="m -206.81611,227.09492 -4.30577,4.51411 0.1389,1.31952 2.43068,2.15288 0.76392,-2.70847 3.40295,-4.58356"
         id="path106" /><path
         style="fill:none;fill-rule:evenodd;stroke:url(#linearGradient112);stroke-width:1.05833;stroke-linecap:butt;stroke-linejoin:miter;stroke-dasharray:none;stroke-opacity:1"
         d="m -207.42857,232.57142 c 1.47321,1.17858 3.33929,2.35715 3.33929,2.35715 l -1.375,1.57143"
         id="path110" /><circle
         style="fill:#ffffff;fill-opacity:1;fill-rule:evenodd;stroke:none;stroke-width:0.661458;stroke-linecap:round;stroke-linejoin:round;stroke-dasharray:none;stroke-opacity:1"
         id="path99"
         cx="-207.64955"
         cy="232.37292"
         r="0.71205354" /><path
         style="fill:none;fill-rule:evenodd;stroke:url(#linearGradient110);stroke-width:1.05833;stroke-linecap:butt;stroke-linejoin:miter;stroke-dasharray:none;stroke-opacity:1"
         d="m -205.56604,229.5256 2.70847,2.63902"
         id="path108" /><circle
         style="fill:#ffffff;fill-opacity:1;fill-rule:evenodd;stroke:none;stroke-width:0.661458;stroke-linecap:round;stroke-linejoin:round;stroke-dasharray:none;stroke-opacity:1"
         id="circle99"
         cx="-205.80917"
         cy="229.80334"
         r="0.71205354" /><circle
         style="fill:#ffffff;fill-opacity:1;fill-rule:evenodd;stroke:none;stroke-width:0.661458;stroke-linecap:round;stroke-linejoin:round;stroke-dasharray:none;stroke-opacity:1"
         id="circle100"
         cx="-203.58684"
         cy="231.99097"
         r="0.71205354" /><circle
         style="fill:#ffffff;fill-opacity:1;fill-rule:evenodd;stroke:none;stroke-width:0.661458;stroke-linecap:round;stroke-linejoin:round;stroke-dasharray:none;stroke-opacity:1"
         id="circle101"
         cx="-205.73973"
         cy="234.2133"
         r="0.71205354" /><circle
         style="fill:#ffffff;fill-opacity:1;fill-rule:evenodd;stroke:none;stroke-width:0.661458;stroke-linecap:round;stroke-linejoin:round;stroke-dasharray:none;stroke-opacity:1"
         id="circle102"
         cx="-208.03151"
         cy="234.42165"
         r="0.71205354" /><circle
         style="fill:#ffffff;fill-opacity:1;fill-rule:evenodd;stroke:none;stroke-width:0.661458;stroke-linecap:round;stroke-linejoin:round;stroke-dasharray:none;stroke-opacity:1"
         id="circle103"
         cx="-211.05249"
         cy="233.24103"
         r="0.71205354" /><circle
         style="fill:#ffffff;fill-opacity:1;fill-rule:evenodd;stroke:none;stroke-width:0.661458;stroke-linecap:round;stroke-linejoin:round;stroke-dasharray:none;stroke-opacity:1"
         id="circle104"
         cx="-211.05249"
         cy="231.12286"
         r="0.71205354" /><circle
         style="fill:#ffffff;fill-opacity:1;fill-rule:evenodd;stroke:none;stroke-width:0.661458;stroke-linecap:round;stroke-linejoin:round;stroke-dasharray:none;stroke-opacity:1"
         id="circle105"
         cx="-209.00377"
         cy="229.0047"
         r="0.71205354" /><circle
         style="fill:#ffffff;fill-opacity:1;fill-rule:evenodd;stroke:none;stroke-width:0.661458;stroke-linecap:round;stroke-linejoin:round;stroke-dasharray:none;stroke-opacity:1"
         id="circle106"
         cx="-207.02451"
         cy="226.59785"
         r="0.71205354" /><path
         style="fill:none;fill-rule:evenodd;stroke:#45b2a9;stroke-width:1.05833;stroke-linecap:butt;stroke-linejoin:miter;stroke-dasharray:none;stroke-opacity:1"
         d="m -206.88839,226.48215 v -2.84821"
         id="path112" /><path
         style="fill:none;fill-rule:evenodd;stroke:#45b2a9;stroke-width:1.05833;stroke-linecap:butt;stroke-linejoin:miter;stroke-dasharray:none;stroke-opacity:1"
         d="m -204.58035,223.73214 h -4.41964 l -1.12947,-1.12946"
         id="path113" /></g></g></svg>
