<?xml version="1.0" encoding="UTF-8" standalone="no"?>
<!-- Created with Inkscape (http://www.inkscape.org/) -->

<svg
   width="128"
   height="64"
   viewBox="0 0 33.866664 16.933333"
   version="1.1"
   id="svg1"
   xml:space="preserve"
   inkscape:version="1.4.2 (f4327f4, 2025-05-13)"
   sodipodi:docname="GhostWorm.svg"
   xmlns:inkscape="http://www.inkscape.org/namespaces/inkscape"
   xmlns:sodipodi="http://sodipodi.sourceforge.net/DTD/sodipodi-0.dtd"
   xmlns="http://www.w3.org/2000/svg"
   xmlns:svg="http://www.w3.org/2000/svg"><sodipodi:namedview
     id="namedview1"
     pagecolor="#505050"
     bordercolor="#eeeeee"
     borderopacity="1"
     inkscape:showpageshadow="0"
     inkscape:pageopacity="0"
     inkscape:pagecheckerboard="0"
     inkscape:deskcolor="#0f0f0f"
     inkscape:document-units="px"
     inkscape:zoom="2.6939394"
     inkscape:cx="41.574803"
     inkscape:cy="21.529809"
     inkscape:window-width="1280"
     inkscape:window-height="961"
     inkscape:window-x="-8"
     inkscape:window-y="-8"
     inkscape:window-maximized="1"
     inkscape:current-layer="layer1"
     showgrid="true"><inkscape:page
       x="0"
       y="0"
       width="33.866665"
       height="16.933332"
       id="page2"
       margin="0"
       bleed="0" /><inkscape:grid
       id="grid40"
       units="px"
       originx="0"
       originy="0"
       spacingx="16.933332"
       spacingy="16.933332"
       empcolor="#ffdd3f"
       empopacity="0.25098039"
       color="#ffcf3f"
       opacity="0.1254902"
       empspacing="1"
       enabled="true"
       visible="true" /></sodipodi:namedview><defs
     id="defs1" /><g
     inkscape:label="Calque 1"
     inkscape:groupmode="layer"
     id="layer1"
     transform="translate(-107.10268,-115.45075)"><g
       id="g46"
       transform="translate(0,2.77031)"><path
         style="fill:#ffb8ae;fill-opacity:1;fill-rule:evenodd;stroke:none;stroke-width:0.264583px;stroke-linecap:butt;stroke-linejoin:miter;stroke-opacity:1"
         d="m 114.66518,125.59137 c 0,0 1.2033,-1.4233 1.89062,-1.93973 0.68732,-0.51643 2.16072,-1.15402 2.16072,-1.15402 0,0 2.1895,-1.24405 2.73679,-1.06044 0.54729,0.1836 1.34783,1.02297 1.34783,1.02297 l -0.49282,1.82147 -0.47916,0.79095 -0.68184,0.29783 -0.66294,0.24554 -0.0491,0.58928 1.64509,0.22099 v 1.84151 h -1.91518 l -0.0246,-0.66294 -2.40625,-0.0246 z"
         id="path41"
         sodipodi:nodetypes="czczcccccccccccc" /><path
         style="fill:#ff0000;fill-opacity:1;fill-rule:evenodd;stroke:none;stroke-width:0.264583px;stroke-linecap:butt;stroke-linejoin:miter;stroke-opacity:1"
         d="m 116.89955,128.46414 h -9.45312 c 0,0 0.44414,-0.94216 0.78571,-1.32589 0.28733,-0.3228 0.6462,-0.5895 1.03125,-0.78571 0.30454,-0.15518 0.64051,-0.30516 0.98215,-0.29465 0.33129,0.0102 0.674,0.13697 0.93303,0.34375 0.30516,0.24361 0.6384,0.98215 0.6384,0.98215 0,0 0.51167,-0.81419 0.9995,-1.02879 0.23973,-0.10546 0.86657,-0.14979 0.86657,-0.14979 0,0 0.25944,-0.48793 0.66691,-0.62426 0.5287,-0.1769 1.39647,0.0149 1.88666,0.2805 0.82326,0.44603 1.76786,1.86607 1.76786,1.86607 0,0 -0.59609,-0.01 -0.88393,0.23325 -0.17903,0.15127 -0.22099,0.50337 -0.22099,0.50337 z"
         id="path40"
         sodipodi:nodetypes="ccsssscscsscsc" /><g
         id="g41"><ellipse
           style="fill:#ffffff;fill-opacity:1;fill-rule:evenodd;stroke-width:0.396874;stroke-linecap:round;stroke-linejoin:round"
           id="ellipse36"
           cx="-119.80141"
           cy="121.71716"
           rx="1.1745899"
           ry="1.4486607"
           transform="scale(-1,1)" /><circle
           style="fill:#2121ff;fill-opacity:1;fill-rule:evenodd;stroke-width:0.396874;stroke-linecap:round;stroke-linejoin:round"
           id="circle37"
           cx="-120.21717"
           cy="121.96412"
           r="0.75882232"
           transform="scale(-1,1)" /></g><g
         id="g42"
         transform="translate(-0.93754778,0.017362)"><ellipse
           style="fill:#ffffff;fill-opacity:1;fill-rule:evenodd;stroke-width:0.396874;stroke-linecap:round;stroke-linejoin:round"
           id="ellipse37"
           cx="-123.1954"
           cy="121.71716"
           rx="1.1745899"
           ry="1.4486607"
           transform="scale(-1,1)" /><circle
           style="fill:#2121ff;fill-opacity:1;fill-rule:evenodd;stroke-width:0.396874;stroke-linecap:round;stroke-linejoin:round"
           id="circle38"
           cx="-123.61118"
           cy="121.96412"
           r="0.75882232"
           transform="scale(-1,1)" /></g></g><g
       id="g45"
       transform="translate(-3.2172167,2.57388)"><path
         style="fill:#ff0000;fill-opacity:1;fill-rule:evenodd;stroke:none;stroke-width:0.264583px;stroke-linecap:butt;stroke-linejoin:miter;stroke-opacity:1"
         d="m 127.875,128.46414 h 9.91964 l 1.03125,-0.78571 c 0,0 -0.0359,-0.45039 -0.16617,-0.62018 -0.26811,-0.34941 -0.73735,-0.49209 -1.14424,-0.66063 -0.3267,-0.13532 -1.02471,-0.27457 -1.02471,-0.27457 l -1.16423,0.67217 c 0,0 -1.71371,0.6898 -2.59712,0.70444 -0.6487,0.0107 -1.3803,-0.0471 -1.89571,-0.4412 -0.192,-0.1468 -0.14209,-0.5052 -0.34375,-0.6384 -0.30172,-0.19931 -1.04353,-0.11662 -1.04353,-0.11662 0,0 -0.98842,0.37758 -1.27679,0.78571 -0.27049,0.38282 -0.29464,1.37499 -0.29464,1.37499 z"
         id="path42"
         sodipodi:nodetypes="cccssccssscsc" /><path
         style="fill:#ffb8ae;fill-opacity:1;fill-rule:evenodd;stroke:none;stroke-width:0.264583px;stroke-linecap:butt;stroke-linejoin:miter;stroke-opacity:1"
         d="m 138.62947,127.70298 h 1.12465 v 0.95759 h 1.86607 v -1.98884 h -1.49777 c 0,0 1.54749,-1.40642 2.09186,-2.28348 0.28695,-0.46232 0.58929,-1.52232 0.58929,-1.52232 0,0 -1.23319,-1.77149 -1.98637,-1.83165 -0.75317,-0.0602 -1.71813,0.80788 -2.3105,1.51245 -0.21517,0.25592 -0.42399,0.49706 -0.56894,0.79836 -0.13866,0.28823 -0.16398,0.67126 -0.27954,0.9695 -0.1208,0.31176 -0.1021,0.671 -0.24771,0.97198 -0.19014,0.39303 -0.7944,1.04141 -0.7944,1.04141 z"
         id="path44"
         sodipodi:nodetypes="ccccccsczsssscc" /><g
         id="g44"
         transform="translate(19.13292,0.017362)"><ellipse
           style="fill:#ffffff;fill-opacity:1;fill-rule:evenodd;stroke-width:0.396874;stroke-linecap:round;stroke-linejoin:round"
           id="ellipse43"
           cx="-123.1954"
           cy="121.71716"
           rx="1.1745899"
           ry="1.4486607"
           transform="scale(-1,1)" /><circle
           style="fill:#2121ff;fill-opacity:1;fill-rule:evenodd;stroke-width:0.396874;stroke-linecap:round;stroke-linejoin:round"
           id="circle43"
           cx="-123.61118"
           cy="121.96412"
           r="0.75882232"
           transform="scale(-1,1)" /></g><g
         id="g43"
         transform="translate(20.070467)"><ellipse
           style="fill:#ffffff;fill-opacity:1;fill-rule:evenodd;stroke-width:0.396874;stroke-linecap:round;stroke-linejoin:round"
           id="ellipse42"
           cx="-119.80141"
           cy="121.71716"
           rx="1.1745899"
           ry="1.4486607"
           transform="scale(-1,1)" /><circle
           style="fill:#2121ff;fill-opacity:1;fill-rule:evenodd;stroke-width:0.396874;stroke-linecap:round;stroke-linejoin:round"
           id="circle42"
           cx="-120.21717"
           cy="121.96412"
           r="0.75882232"
           transform="scale(-1,1)" /></g></g></g></svg>
