<?xml version="1.0" encoding="UTF-8" standalone="no"?>
<!-- Created with Inkscape (http://www.inkscape.org/) -->

<svg
   width="60.587921"
   height="21.668121"
   viewBox="0 0 16.030554 5.7330238"
   version="1.1"
   id="svg1"
   xml:space="preserve"
   inkscape:version="1.4.2 (f4327f4, 2025-05-13)"
   sodipodi:docname="sprites.svg"
   xmlns:inkscape="http://www.inkscape.org/namespaces/inkscape"
   xmlns:sodipodi="http://sodipodi.sourceforge.net/DTD/sodipodi-0.dtd"
   xmlns="http://www.w3.org/2000/svg"
   xmlns:svg="http://www.w3.org/2000/svg"><sodipodi:namedview
     id="namedview1"
     pagecolor="#505050"
     bordercolor="#eeeeee"
     borderopacity="1"
     inkscape:showpageshadow="0"
     inkscape:pageopacity="0"
     inkscape:pagecheckerboard="0"
     inkscape:deskcolor="#0f0f0f"
     inkscape:document-units="px"
     inkscape:zoom="0.4762257"
     inkscape:cx="-474.56489"
     inkscape:cy="472.46505"
     inkscape:window-width="1280"
     inkscape:window-height="961"
     inkscape:window-x="-8"
     inkscape:window-y="-8"
     inkscape:window-maximized="1"
     inkscape:current-layer="layer1"><inkscape:page
       x="0"
       y="0"
       width="16.030554"
       height="5.7330236"
       id="page2"
       margin="0"
       bleed="0" /></sodipodi:namedview><defs
     id="defs1" /><g
     inkscape:label="Calque 1"
     inkscape:groupmode="layer"
     id="layer1"
     transform="translate(143.59175,-36.250068)"><path
       id="path52"
       style="fill:#ffff00;fill-rule:evenodd;stroke-width:0.529167;stroke-linecap:round;stroke-linejoin:round"
       d="m -142.37477,36.250068 -0.56017,0.38964 c 0,0 -0.62951,0.375587 -0.65681,0.50953 0.0592,0.430455 0.15108,0.928584 0.30902,1.329118 0.15969,0.404837 0.45442,0.810779 0.73174,1.146183 0.27647,0.334414 0.60508,0.589246 0.96015,0.892452 0.39042,0.333378 0.86387,0.639458 1.3193,0.876432 0.28617,0.148904 0.77111,0.26227 1.39061,0.454753 0.59824,0.185889 1.21285,0.125573 1.21285,0.125573 l 0.43356,-0.05116 1.4795,-0.429431 0.1788,-0.777214 0.17828,0.777214 1.47898,0.429431 0.43409,0.05116 c 0,0 0.6146,0.06032 1.21284,-0.125573 0.6195,-0.192483 1.10393,-0.305849 1.3901,-0.454753 0.45543,-0.236974 0.92939,-0.543054 1.31981,-0.876432 0.35507,-0.303206 0.68368,-0.558038 0.96015,-0.892452 0.27732,-0.335404 0.57205,-0.741346 0.73174,-1.146183 0.15794,-0.400534 0.24984,-0.898663 0.30903,-1.329118 -0.0273,-0.133943 -0.65681,-0.50953 -0.65681,-0.50953 l -0.56017,-0.38964 -5.795,1.931665 -1.00356,0.112138 -1.00355,-0.112138 z" /></g></svg>
