<?xml version="1.0" encoding="UTF-8" standalone="no"?>
<!-- Created with Inkscape (http://www.inkscape.org/) -->

<svg
   width="896"
   height="64"
   viewBox="0 0 237.06666 16.933333"
   version="1.1"
   id="svg1"
   sodipodi:docname="PacManFull.svg"
   inkscape:version="1.4.2 (f4327f4, 2025-05-13)"
   xmlns:inkscape="http://www.inkscape.org/namespaces/inkscape"
   xmlns:sodipodi="http://sodipodi.sourceforge.net/DTD/sodipodi-0.dtd"
   xmlns="http://www.w3.org/2000/svg"
   xmlns:svg="http://www.w3.org/2000/svg">
  <sodipodi:namedview
     id="namedview1"
     pagecolor="#505050"
     bordercolor="#eeeeee"
     borderopacity="1"
     inkscape:showpageshadow="0"
     inkscape:pageopacity="0"
     inkscape:pagecheckerboard="0"
     inkscape:deskcolor="#000000"
     inkscape:document-units="px"
     showgrid="true"
     inkscape:zoom="0.70710678"
     inkscape:cx="390.32294"
     inkscape:cy="255.97266"
     inkscape:window-width="1280"
     inkscape:window-height="961"
     inkscape:window-x="-8"
     inkscape:window-y="-8"
     inkscape:window-maximized="1"
     inkscape:current-layer="layer1">
    <inkscape:grid
       id="grid1"
       units="px"
       originx="0"
       originy="0"
       spacingx="16.933333"
       spacingy="16.933333"
       empcolor="#ffdd3f"
       empopacity="0.25098039"
       color="#ffcf3f"
       opacity="0.1254902"
       empspacing="1"
       enabled="true"
       visible="true" />
  </sodipodi:namedview>
  <defs
     id="defs1" />
  <g
     inkscape:label="Calque 1"
     inkscape:groupmode="layer"
     id="layer1">
    <circle
       style="fill:#ffff00;fill-opacity:1;fill-rule:evenodd;stroke:none;stroke-width:0.529167;stroke-linecap:round;stroke-linejoin:round;stroke-dasharray:none;stroke-opacity:1"
       id="path38"
       cx="8.4666662"
       cy="8.4666662"
       r="7.0836949"
       inkscape:export-filename="..\Binary\Data\Textures\Pacman1.svg"
       inkscape:export-xdpi="96"
       inkscape:export-ydpi="96" />
    <path
       id="circle40"
       style="fill:#ffff00;fill-rule:evenodd;stroke-width:0.529167;stroke-linecap:round;stroke-linejoin:round"
       d="m 25.40012,1.382861 a 7.0836949,7.0836949 0 0 0 -7.08381,7.083811 7.0836949,7.0836949 0 0 0 7.08381,7.0838 7.0836949,7.0836949 0 0 0 6.381521,-4.01009 L 22.48298,8.281152 c 0,0 6.686761,-2.09663 9.296591,-2.893367 A 7.0836949,7.0836949 0 0 0 25.40012,1.382861 Z"
       inkscape:export-filename="..\Binary\Data\Textures\Pacman2.svg"
       inkscape:export-xdpi="96"
       inkscape:export-ydpi="96" />
    <path
       id="circle41"
       style="fill:#ffff00;fill-rule:evenodd;stroke-width:0.529167;stroke-linecap:round;stroke-linejoin:round"
       d="m 42.333453,1.3828595 a 7.0836949,7.0836949 0 0 0 -7.08381,7.083804 7.0836949,7.0836949 0 0 0 7.08381,7.0838095 7.0836949,7.0836949 0 0 0 3.6065,-0.98702 l -6.33347,-5.7929295 6.5195,-6.286439 a 7.0836949,7.0836949 0 0 0 -3.79253,-1.101225 z"
       inkscape:export-filename="..\Binary\Data\Textures\Pacman3.svg"
       inkscape:export-xdpi="96"
       inkscape:export-ydpi="96" />
    <g
       id="g43"
       transform="translate(245.828,-11.067745)"
       inkscape:export-filename="..\Binary\Data\Textures\PacmanLose1.svg"
       inkscape:export-xdpi="96"
       inkscape:export-ydpi="96">
      <path
         id="circle42"
         style="fill:#ffff00;fill-rule:evenodd;stroke-width:0.529167;stroke-linecap:round;stroke-linejoin:round"
         d="m -192.46624,14.038183 c -0.80386,1.17705 -1.17869,2.495569 -1.17878,3.920927 -6e-5,3.912301 3.1715,7.083864 7.0838,7.083806 3.91231,6.4e-5 7.08387,-3.171501 7.08381,-7.083806 -4e-5,-1.395189 -0.41208,-2.759301 -1.18443,-3.921207 l -5.61051,6.35465 z"
         sodipodi:nodetypes="cccsccc" />
      <path
         style="fill:#ffff00;fill-opacity:1;fill-rule:evenodd;stroke:none;stroke-width:0.264583px;stroke-linecap:butt;stroke-linejoin:miter;stroke-opacity:1"
         d="m -179.4774,17.929924 v -3.904018 h -1.17858 v 3.904018 z"
         id="path42" />
      <path
         style="fill:#ffff00;fill-opacity:1;fill-rule:evenodd;stroke:none;stroke-width:0.264583px;stroke-linecap:butt;stroke-linejoin:miter;stroke-opacity:1"
         d="m -192.46644,17.929924 v -3.904018 h -1.17858 v 3.904018 z"
         id="path43" />
    </g>
    <path
       id="path44"
       style="fill:#ffff00;fill-rule:evenodd;stroke-width:0.529167;stroke-linecap:round;stroke-linejoin:round"
       d="m 69.864178,4.2026065 -0.79478,0.24753 c 0,0 -0.86985,0.20515 -0.95085,0.35089 -0.0891,0.5224 -0.16537,1.13599 -0.12867,1.65984 0.0371,0.5295 0.23054,1.10954 0.42994,1.60146 0.19879,0.49046 0.48795,0.90759 0.78962,1.39061 0.33169,0.53109 0.77015,1.0609505 1.21285,1.5037805 0.27818,0.27826 0.80019,0.5879 1.45004,1.03922 0.62758,0.43585 1.36477,0.59169 1.36477,0.59169 l 0.52348,0.0997 1.87792,0.0434 0.54364,-0.92449 0.0176,-0.0289 0.0181,0.0289 0.54363,0.92449 1.877921,-0.0434 0.52349,-0.0997 c 0,0 0.73719,-0.15584 1.36477,-0.59169 0.64985,-0.45132 1.17186,-0.76096 1.45004,-1.03922 0.4427,-0.44283 0.88116,-0.9726905 1.21285,-1.5037805 0.30167,-0.48302 0.59031,-0.90015 0.7891,-1.39061 0.1994,-0.49192 0.39337,-1.07196 0.43046,-1.60146 0.0367,-0.52385 -0.0396,-1.13744 -0.12867,-1.65984 -0.081,-0.14574 -0.95085,-0.35089 -0.95085,-0.35089 l -0.79478,-0.24753 -6.030641,4.3739 -0.30541,0.23151 -0.30489,-0.23151 z"
       inkscape:export-filename="..\Binary\Data\Textures\PacmanLose2.svg"
       inkscape:export-xdpi="96"
       inkscape:export-ydpi="96" />
    <path
       id="path49"
       style="fill:#ffff00;fill-rule:evenodd;stroke-width:0.529167;stroke-linecap:round;stroke-linejoin:round"
       d="m 86.958184,5.0751615 -0.6475,0.29456 c 0,0 -0.71626,0.2667 -0.76946,0.39894 -0.0201,0.45261 -0.0191,0.98116 0.0677,1.42162 0.0878,0.4452 0.3134,0.91651 0.53485,1.31258 0.22079,0.3949 0.51026,0.71841 0.81752,1.09606 0.33784,0.4152195 0.76594,0.8176295 1.18856,1.1461795 0.26556,0.20645 0.74125,0.41388 1.34049,0.72761 0.57869,0.30297 1.2206,0.35656 1.2206,0.35656 l 0.45475,0.0289 1.59732,-0.162779 0.36328,-0.842321 0.007,-0.0145 0.007,0.0145 0.36277,0.842321 1.597829,0.162779 0.45475,-0.0289 c 0,0 0.641401,-0.0536 1.22009,-0.35656 0.59924,-0.31373 1.074921,-0.52116 1.34048,-0.72761 0.42262,-0.32855 0.85124,-0.73096 1.18908,-1.1461795 0.30726,-0.37765 0.59673,-0.70116 0.817517,-1.09606 0.22145,-0.39607 0.44707,-0.86738 0.53485,-1.31258 0.0868,-0.44046 0.0878,-0.96901 0.0677,-1.42162 -0.0532,-0.13224 -0.769466,-0.39894 -0.769466,-0.39894 l -0.6475,-0.29456 -5.58106,3.06907 -0.31161,0.18035 -0.28215,2.2489595 -0.28215,-2.2489595 -0.31213,-0.18035 z"
       inkscape:export-filename="..\Binary\Data\Textures\PacmanLose3.svg"
       inkscape:export-xdpi="96"
       inkscape:export-ydpi="96" />
    <path
       id="path52"
       style="fill:#ffff00;fill-rule:evenodd;stroke-width:0.529167;stroke-linecap:round;stroke-linejoin:round"
       d="m 103.26836,5.6001563 -0.56017,0.38964 c 0,0 -0.62951,0.37558 -0.65681,0.50953 0.0592,0.43045 0.15108,0.92858 0.30902,1.32912 0.15969,0.40483 0.45442,0.81077 0.73174,1.14618 0.27647,0.33441 0.60508,0.58924 0.96015,0.89245 0.39042,0.3333797 0.86387,0.6394597 1.3193,0.8764297 0.28617,0.14891 0.77111,0.26227 1.39061,0.45476 0.59824,0.18588 1.21285,0.12557 1.21285,0.12557 l 0.43356,-0.0512 1.4795,-0.42943 0.1788,-0.77722 0.17828,0.77722 1.47898,0.42943 0.43409,0.0512 c 0,0 0.6146,0.0603 1.21284,-0.12557 0.6195,-0.19249 1.10393,-0.30585 1.3901,-0.45476 0.45543,-0.23697 0.92939,-0.54305 1.31981,-0.8764297 0.35507,-0.30321 0.68368,-0.55804 0.96015,-0.89245 0.27732,-0.33541 0.57205,-0.74135 0.73174,-1.14618 0.15794,-0.40054 0.24984,-0.89867 0.30903,-1.32912 -0.0273,-0.13395 -0.65681,-0.50953 -0.65681,-0.50953 l -0.56017,-0.38964 -5.795,1.93166 -1.00356,0.11214 -1.00355,-0.11214 z"
       inkscape:export-filename="..\Binary\Data\Textures\PacmanLose4.svg"
       inkscape:export-xdpi="96"
       inkscape:export-ydpi="96" />
    <path
       id="path54"
       style="fill:#ffff00;fill-rule:evenodd;stroke-width:0.529167;stroke-linecap:round;stroke-linejoin:round"
       d="m 123.61083,6.0792502 -4.19406,0.75603 -0.44029,0.24391 c 0,0 -0.21625,0.41494 -0.20825,0.55139 0.16859,0.40046 0.0921,0.75986 0.3483,1.10587 0.25902,0.34971 0.64836,0.66558 1.00304,0.91778 0.3536,0.25146 0.73713,0.4124198 1.15858,0.6133898 0.4634,0.22098 1.00048,0.39438 1.50172,0.5054 0.31496,0.0698 0.81216,0.0535 1.46037,0.0791 0.62597,0.0247 1.20407,-0.19224 1.20407,-0.19224 l 0.40617,-0.16174 0.69867,-0.7978898 v -0.67024 h 0.39894 0.10439 0.39894 v 0.67024 l 0.69866,0.7978898 0.40618,0.16174 c 0,0 0.57809,0.21696 1.20406,0.19224 0.64821,-0.0256 1.14542,-0.009 1.46038,-0.0791 0.50124,-0.11102 1.0378,-0.28442 1.5012,-0.5054 0.42145,-0.20097 0.8055,-0.3619298 1.1591,-0.6133898 0.35468,-0.2522 0.74402,-0.56807 1.00304,-0.91778 0.25623,-0.34601 0.17919,-0.70541 0.34778,-1.10587 0.008,-0.13645 -0.20774,-0.55139 -0.20774,-0.55139 l -0.44028,-0.24391 -4.19458,-0.75603 h -3.33674 -0.10439 z"
       inkscape:export-filename="..\Binary\Data\Textures\PacmanLose5.svg"
       inkscape:export-xdpi="96"
       inkscape:export-ydpi="96" />
    <path
       id="path60"
       style="fill:#ffff00;fill-rule:evenodd;stroke-width:0.529167;stroke-linecap:round;stroke-linejoin:round"
       d="m 143.27102,5.3955926 -3.04064,1.56734 -2.77657,0.65216 -1.44384,0.70848 c 0,0 -0.34968,0.22396 -0.40308,0.45734 0.20406,0.38361 0.36883,0.69967 0.65526,1.02113 0.28954,0.3248904 0.48492,0.4934704 0.86093,0.7126204 0.37486,0.2185 0.41581,0.29523 0.85369,0.45733 0.48146,0.17823 0.95736,0.36361 1.46658,0.42892 0.31998,0.0411 0.54378,0.1643 1.19166,0.13125 0.62564,-0.0319 1.18184,-0.30024 1.18184,-0.30024 l 0.38964,-0.19792 0.61185,-0.77153 0.31987,-0.5570704 0.13333,-0.83147 h 0.57516 0.17363 0.57516 l 0.13281,0.83147 0.32039,0.5570704 0.61133,0.77153 0.38965,0.19792 c 0,0 0.55619,0.26834 1.18184,0.30024 0.64787,0.0331 0.87168,-0.0902 1.19165,-0.13125 0.50922,-0.0653 0.98564,-0.25069 1.4671,-0.42892 0.43787,-0.1621 0.47883,-0.23883 0.85369,-0.45733 0.37601,-0.21915 0.57139,-0.38773 0.86093,-0.7126204 0.28643,-0.32146 0.45068,-0.63752 0.65474,-1.02113 -0.0534,-0.23338 -0.40256,-0.45734 -0.40256,-0.45734 l -1.44384,-0.70848 -2.77657,-0.65216 -3.04116,-1.56734 h -0.61805 -0.0879 z"
       inkscape:export-filename="..\Binary\Data\Textures\PacmanLose6.svg"
       inkscape:export-xdpi="96"
       inkscape:export-ydpi="96" />
    <path
       style="fill:#ffff00;fill-opacity:1;fill-rule:evenodd;stroke:none;stroke-width:0.264583px;stroke-linecap:butt;stroke-linejoin:miter;stroke-opacity:1"
       d="m 161.00568,4.5428565 5.62529,4.30577 1.38896,0.41669 -0.34724,1.9445405 -2.01399,1.18062 h -2.98627 l -1.80564,-2.7779205 -1.94455,2.7779205 h -3.26405 l -1.42369,-1.18062 -0.52085,-1.9445405 1.25006,-0.41669 z"
       id="path66"
       sodipodi:nodetypes="ccccccccccccc"
       inkscape:export-filename="..\Binary\Data\Textures\PacmanLose7.svg"
       inkscape:export-xdpi="96"
       inkscape:export-ydpi="96" />
    <path
       style="fill:#ffff00;fill-opacity:1;fill-rule:evenodd;stroke:none;stroke-width:0.264583px;stroke-linecap:butt;stroke-linejoin:miter;stroke-opacity:1"
       d="m 182.83494,10.654277 -1.5973,1.736199 h -2.70848 l -0.76392,-1.45841 -0.76393,1.45841 h -2.56958 l -1.66675,-1.736199 5.13915,-6.1114205 z"
       id="path67"
       sodipodi:nodetypes="ccccccccc"
       inkscape:export-filename="..\Binary\Data\Textures\PacmanLose8.svg"
       inkscape:export-xdpi="96"
       inkscape:export-ydpi="96" />
    <path
       style="fill:#ffff00;fill-opacity:1;fill-rule:evenodd;stroke:none;stroke-width:0.264583px;stroke-linecap:butt;stroke-linejoin:miter;stroke-opacity:1"
       d="m 194.83141,4.5135415 -2.99553,6.0401795 1.86607,1.86607 1.12946,-1.81696 1.12947,1.81696 1.66964,-1.86607 z"
       id="path68"
       sodipodi:nodetypes="ccccccc"
       inkscape:export-filename="..\Binary\Data\Textures\PacmanLose9.svg"
       inkscape:export-xdpi="96"
       inkscape:export-ydpi="96" />
    <path
       id="rect68"
       style="fill:#ffff00;fill-rule:evenodd;stroke-width:0.529167;stroke-linecap:round;stroke-linejoin:round"
       d="m 210.8319,4.9800565 h 1.66964 v 6.9732195 h -1.66964 z"
       inkscape:export-filename="..\Binary\Data\Textures\PacmanLose10.svg"
       inkscape:export-xdpi="96"
       inkscape:export-ydpi="96" />
    <g
       id="g78"
       inkscape:export-filename="..\Binary\Data\Textures\PacmanLose11.svg"
       inkscape:export-xdpi="96"
       inkscape:export-ydpi="96"
       transform="translate(245.77676,-30.649912)">
      <path
         style="fill:none;fill-rule:evenodd;stroke:#ffff00;stroke-width:0.873125;stroke-linecap:round;stroke-linejoin:miter;stroke-dasharray:none;stroke-opacity:1"
         d="m -14.167389,37.744982 1.319511,-1.38896"
         id="path69" />
      <path
         style="fill:none;fill-rule:evenodd;stroke:#ffff00;stroke-width:0.873125;stroke-linecap:round;stroke-linejoin:miter;stroke-dasharray:none;stroke-opacity:1"
         d="m -16.216105,35.55737 1.250064,-1.354236"
         id="path70" />
      <path
         style="fill:none;fill-rule:evenodd;stroke:#ffff00;stroke-width:0.873125;stroke-linecap:round;stroke-linejoin:miter;stroke-dasharray:none;stroke-opacity:1"
         d="m -13.264565,39.689524 1.805647,0.03472"
         id="path71" />
      <path
         style="fill:none;fill-rule:evenodd;stroke:#ffff00;stroke-width:0.873125;stroke-linecap:round;stroke-linejoin:miter;stroke-dasharray:none;stroke-opacity:1"
         d="m -14.132665,41.703516 1.284787,1.319511"
         id="path72" />
      <path
         style="fill:none;fill-rule:evenodd;stroke:#ffff00;stroke-width:0.873125;stroke-linecap:round;stroke-linejoin:miter;stroke-dasharray:none;stroke-opacity:1"
         d="m -16.216105,42.77996 1.284788,1.250064"
         id="path73" />
      <path
         style="fill:none;fill-rule:evenodd;stroke:#ffff00;stroke-width:0.873125;stroke-linecap:round;stroke-linejoin:miter;stroke-dasharray:none;stroke-opacity:1"
         d="m -20.259866,36.787393 -1.319511,-1.38896"
         id="path74" />
      <path
         style="fill:none;fill-rule:evenodd;stroke:#ffff00;stroke-width:0.873125;stroke-linecap:round;stroke-linejoin:miter;stroke-dasharray:none;stroke-opacity:1"
         d="m -18.162043,35.55737 -1.250064,-1.354236"
         id="path75" />
      <path
         style="fill:none;fill-rule:evenodd;stroke:#ffff00;stroke-width:0.873125;stroke-linecap:round;stroke-linejoin:miter;stroke-dasharray:none;stroke-opacity:1"
         d="m -21.089029,38.731935 -1.805647,0.03472"
         id="path76" />
      <path
         style="fill:none;fill-rule:evenodd;stroke:#ffff00;stroke-width:0.873125;stroke-linecap:round;stroke-linejoin:miter;stroke-dasharray:none;stroke-opacity:1"
         d="m -20.368251,40.721373 -1.284787,1.319511"
         id="path77" />
      <path
         style="fill:none;fill-rule:evenodd;stroke:#ffff00;stroke-width:0.873125;stroke-linecap:round;stroke-linejoin:miter;stroke-dasharray:none;stroke-opacity:1"
         d="m -18.186596,42.77996 -1.284788,1.250064"
         id="path78" />
    </g>
  </g>
</svg>
