<?xml version="1.0" encoding="UTF-8" standalone="no"?>
<!-- Created with Inkscape (http://www.inkscape.org/) -->

<svg
   width="62.939457"
   height="23.214401"
   viewBox="0 0 16.652731 6.1421437"
   version="1.1"
   id="svg1"
   xml:space="preserve"
   inkscape:version="1.4.2 (f4327f4, 2025-05-13)"
   sodipodi:docname="sprites.svg"
   xmlns:inkscape="http://www.inkscape.org/namespaces/inkscape"
   xmlns:sodipodi="http://sodipodi.sourceforge.net/DTD/sodipodi-0.dtd"
   xmlns="http://www.w3.org/2000/svg"
   xmlns:svg="http://www.w3.org/2000/svg"><sodipodi:namedview
     id="namedview1"
     pagecolor="#505050"
     bordercolor="#eeeeee"
     borderopacity="1"
     inkscape:showpageshadow="0"
     inkscape:pageopacity="0"
     inkscape:pagecheckerboard="0"
     inkscape:deskcolor="#0f0f0f"
     inkscape:document-units="px"
     inkscape:zoom="0.4762257"
     inkscape:cx="-474.56489"
     inkscape:cy="472.46505"
     inkscape:window-width="1280"
     inkscape:window-height="961"
     inkscape:window-x="-8"
     inkscape:window-y="-8"
     inkscape:window-maximized="1"
     inkscape:current-layer="layer1"><inkscape:page
       x="0"
       y="0"
       width="16.652731"
       height="6.1421437"
       id="page2"
       margin="0"
       bleed="0" /></sodipodi:namedview><defs
     id="defs1" /><g
     inkscape:label="Calque 1"
     inkscape:groupmode="layer"
     id="layer1"
     transform="translate(110.38551,-36.045505)"><path
       id="path60"
       style="fill:#ffff00;fill-rule:evenodd;stroke-width:0.529167;stroke-linecap:round;stroke-linejoin:round"
       d="m -102.72138,36.045508 -3.04064,1.567347 -2.77657,0.652156 -1.44384,0.708484 c 0,0 -0.34968,0.223957 -0.40308,0.457336 0.20406,0.383609 0.36883,0.69967 0.65526,1.021127 0.28954,0.324895 0.48492,0.493475 0.86093,0.712618 0.37486,0.218507 0.41581,0.295238 0.85369,0.457336 0.48146,0.178225 0.95736,0.363605 1.46658,0.428915 0.31998,0.04108 0.54378,0.164308 1.19166,0.131258 0.62564,-0.03191 1.18184,-0.30024 1.18184,-0.30024 l 0.38964,-0.197921 0.61185,-0.771529 0.31987,-0.557072 0.13333,-0.831474 h 0.57516 0.17363 0.57516 l 0.13281,0.831474 0.32039,0.557072 0.61133,0.771529 0.389645,0.197921 c 0,0 0.556195,0.268334 1.18184,0.30024 0.647873,0.03305 0.871682,-0.09018 1.191658,-0.131258 0.509218,-0.06531 0.985634,-0.25069 1.467094,-0.428915 0.437876,-0.162098 0.478833,-0.238829 0.853695,-0.457336 0.376005,-0.219143 0.571389,-0.387723 0.860929,-0.712618 0.286427,-0.321457 0.450678,-0.637518 0.65474,-1.021127 -0.05337,-0.233379 -0.402559,-0.457336 -0.402559,-0.457336 l -1.44384,-0.708484 -2.776574,-0.652156 -3.041158,-1.567347 h -0.61805 -0.0879 z" /></g></svg>
