<?xml version="1.0" encoding="UTF-8" standalone="no"?>
<!-- Created with Inkscape (http://www.inkscape.org/) -->

<svg
   width="57.469727"
   height="25.636719"
   viewBox="0 0 15.205531 6.7830485"
   version="1.1"
   id="svg1"
   xml:space="preserve"
   inkscape:version="1.4.2 (f4327f4, 2025-05-13)"
   sodipodi:docname="sprites.svg"
   xmlns:inkscape="http://www.inkscape.org/namespaces/inkscape"
   xmlns:sodipodi="http://sodipodi.sourceforge.net/DTD/sodipodi-0.dtd"
   xmlns="http://www.w3.org/2000/svg"
   xmlns:svg="http://www.w3.org/2000/svg"><sodipodi:namedview
     id="namedview1"
     pagecolor="#505050"
     bordercolor="#eeeeee"
     borderopacity="1"
     inkscape:showpageshadow="0"
     inkscape:pageopacity="0"
     inkscape:pagecheckerboard="0"
     inkscape:deskcolor="#0f0f0f"
     inkscape:document-units="px"
     inkscape:zoom="0.4762257"
     inkscape:cx="-474.56489"
     inkscape:cy="472.46505"
     inkscape:window-width="1280"
     inkscape:window-height="961"
     inkscape:window-x="-8"
     inkscape:window-y="-8"
     inkscape:window-maximized="1"
     inkscape:current-layer="layer1"><inkscape:page
       x="0"
       y="0"
       width="15.205531"
       height="6.7830486"
       id="page2"
       margin="0"
       bleed="0" /></sodipodi:namedview><defs
     id="defs1" /><g
     inkscape:label="Calque 1"
     inkscape:groupmode="layer"
     id="layer1"
     transform="translate(160.50528,-35.725055)"><path
       id="path49"
       style="fill:#ffff00;fill-rule:evenodd;stroke-width:0.529167;stroke-linecap:round;stroke-linejoin:round"
       d="m -159.07763,35.725055 -0.6475,0.294555 c 0,0 -0.71626,0.266698 -0.76946,0.398942 -0.0201,0.452609 -0.0191,0.981158 0.0677,1.421619 0.0878,0.445201 0.3134,0.916513 0.53485,1.312581 0.22079,0.394899 0.51026,0.718412 0.81752,1.096057 0.33784,0.415226 0.76594,0.817629 1.18856,1.146184 0.26556,0.20645 0.74125,0.413882 1.34049,0.727604 0.57869,0.302977 1.2206,0.356567 1.2206,0.356567 l 0.45475,0.02894 1.59732,-0.162781 0.36328,-0.842326 0.007,-0.01447 0.007,0.01447 0.36277,0.842326 1.59783,0.162781 0.45475,-0.02894 c 0,0 0.6414,-0.05359 1.22009,-0.356567 0.59924,-0.313722 1.07492,-0.521154 1.34048,-0.727604 0.42262,-0.328555 0.85124,-0.730958 1.18908,-1.146184 0.30726,-0.377645 0.59673,-0.701158 0.81752,-1.096057 0.22145,-0.396068 0.44707,-0.86738 0.53485,-1.312581 0.0868,-0.440461 0.0878,-0.96901 0.0677,-1.421619 -0.0532,-0.132244 -0.76947,-0.398942 -0.76947,-0.398942 l -0.6475,-0.294555 -5.58106,3.069063 -0.31161,0.180351 -0.28215,2.248958 -0.28215,-2.248958 -0.31213,-0.180351 z" /></g></svg>
